<svg xmlns="http://www.w3.org/2000/svg" width="40" height="40" viewBox="0 0 40 40">
    <defs>
        <g id="icon_fb">
            <path class="cls-1" d="M24,16.829H21.276V14.96a0.745,0.745,0,0,1,.758-0.865h1.922V11.011L21.308,11c-2.939,0-3.608,2.3-3.608,3.772v2.056H16v3.178h1.7V29h3.576V20.007h2.412Z"/>
        </g>
        <g id="icon_twitter">
            <path class="cls-1" d="M26,15.282a0.172,0.172,0,0,1-.038-0.032,3.64,3.64,0,0,0-2.637-.939l-0.031-.068a0.023,0.023,0,0,1,.019-0.006,3.186,3.186,0,0,0,1.621-.625,0.208,0.208,0,0,0-.212-0.3,5.473,5.473,0,0,0-1.266.29c0.48-.29.667-0.495,0.561-0.6a2.536,2.536,0,0,0-1.521.693,0.767,0.767,0,0,0,.225-0.526,4.284,4.284,0,0,0-.674.538,10.152,10.152,0,0,0-.979,1.182l-0.012.031A10.258,10.258,0,0,0,19.695,17.9l-0.1.075-0.019.018a5.022,5.022,0,0,0-1.4-1.151,16.9,16.9,0,0,0-2.307-1.155,20.172,20.172,0,0,0-2.936-1.162,2.759,2.759,0,0,0,1.615,2.486v0.018a3.621,3.621,0,0,0-1.1.155c0.068,0.971.8,1.638,2.182,2.009l-0.007.018a1.637,1.637,0,0,0-1.34.52A2.429,2.429,0,0,0,16.7,20.94a1.635,1.635,0,0,0-.53.372,0.738,0.738,0,0,0-.212.742,1.356,1.356,0,0,0,1.359.594h0l0.037,0.043-0.018.018A5.185,5.185,0,0,1,13.2,24.218l-0.025.012A5.353,5.353,0,0,1,10,22.888a9.768,9.768,0,0,0,4.551,3.389,11.394,11.394,0,0,0,6.465.148h0.037a10.284,10.284,0,0,0,5.318-3.506,6.9,6.9,0,0,0,1.266-2.659A2.673,2.673,0,0,0,30,19.37l-0.012-.019a4.969,4.969,0,0,1-2.127-.117V19.122c0-.005,0-0.005.006,0,1.154-.123,1.833-0.475,2.051-1.057a3.4,3.4,0,0,1-2.382.025A4.761,4.761,0,0,0,26,15.282Z"/>
        </g>
        <g id="icon_in">
            <path class="cls-1" d="M20.6,19.217V19.192l-0.016.025H20.6ZM26.817,12H13.182A1.165,1.165,0,0,0,12,13.146V26.854A1.165,1.165,0,0,0,13.182,28H26.817A1.165,1.165,0,0,0,28,26.854V13.146A1.165,1.165,0,0,0,26.817,12ZM16.85,25.393H14.433V18.169H16.85v7.224Zm-1.208-8.211H15.626a1.252,1.252,0,1,1,.032-2.5A1.253,1.253,0,1,1,15.642,17.182Zm9.922,8.211H23.147V21.528c0-.971-0.35-1.633-1.224-1.633a1.323,1.323,0,0,0-1.24.878,1.631,1.631,0,0,0-.079.586v4.035H18.187s0.032-6.547,0-7.224H20.6v1.023A2.4,2.4,0,0,1,22.782,18c1.59,0,2.782,1.033,2.782,3.252v4.142Z"/>
        </g>
    </defs>
</svg>
